<?xml version="1.0" encoding="UTF-8" standalone="no"?>
<svg
   xmlns:dc="http://purl.org/dc/elements/1.1/"
   xmlns:cc="http://creativecommons.org/ns#"
   xmlns:rdf="http://www.w3.org/1999/02/22-rdf-syntax-ns#"
   xmlns:svg="http://www.w3.org/2000/svg"
   xmlns="http://www.w3.org/2000/svg"
   viewBox="0 0 222.85075 105.89494"
   height="105.89494"
   width="222.85075"
   version="1.1"
   id="svg3337">
  <metadata
     id="metadata3343">
    <rdf:RDF>
      <cc:Work
         rdf:about="">
        <dc:format>image/svg+xml</dc:format>
        <dc:type
           rdf:resource="http://purl.org/dc/dcmitype/StillImage" />
        <dc:title></dc:title>
      </cc:Work>
    </rdf:RDF>
  </metadata>
  <defs
     id="defs3341" />
  <path
     id="path3347"
     d="M 144.03654,104.82591 C 129.28416,100.59324 126.39914,80.720754 139.2977,72.184016 142.73788,69.90718 144.42619,69.5 150.42656,69.5 c 11.67782,0 18.13683,5.059788 20.10545,15.75 L 171.22258,89 159.11129,89 147,89 l 0,2.845012 C 147,94.85785 149.64123,98 152.17375,98 c 0.83395,0 2.33581,-0.905578 3.33747,-2.012395 1.54715,-1.709585 2.58616,-1.915633 6.90498,-1.369343 7.47066,0.944967 8.07892,1.482578 5.45357,4.820169 -4.46832,5.680549 -14.72831,7.999809 -23.83323,5.387479 z M 156,83.222506 C 156,80.547091 153.13752,77 150.97848,77 148.8578,77 147,79.77108 147,82.934259 147,84.715878 147.61893,85 151.5,85 c 3.64556,0 4.5,-0.337501 4.5,-1.777494 z M 74.11272,102.75 C 73.65194,101.5125 70.85058,93.119749 67.88747,84.099441 63.99605,72.253168 62.01404,67.569459 60.75,67.23281 59.33444,66.855809 59,65.642359 59,60.883369 L 59,55 l 11.5,0 11.5,0 0,6 c 0,4.781316 -0.31836,6 -1.56739,6 -1.01956,0 -1.38988,0.611657 -1.05952,1.75 0.27932,0.9625 0.95436,3.55 1.50007,5.75 0.54571,2.2 1.54113,6.025 2.21205,8.5 l 1.21984,4.5 3.2791,-10 C 90.22595,69.443484 90.58501,67.437162 89.43162,67.176676 88.38686,66.940723 88,65.251793 88,60.926676 L 88,55 l 9.5,0 9.5,0 0,6 c 0,4.781316 -0.31836,6 -1.56739,6 -1.73611,0 -1.86296,-0.623054 2.47864,12.173851 L 110.73606,87.5 111.93535,83 c 0.65961,-2.475 1.64578,-6.3 2.19149,-8.5 0.54571,-2.2 1.22074,-4.7875 1.50007,-5.75 0.33036,-1.138343 -0.04,-1.75 -1.05952,-1.75 C 113.31836,67 113,65.781316 113,61 l 0,-6 9,0 9,0 0,5.926676 c 0,4.735926 -0.3349,5.991636 -1.66691,6.25 C 128.1374,67.408601 125.92391,72.729663 121.50287,86 l -6.16333,18.5 -7.10949,0.29259 -7.10949,0.2926 -2.93172,-9.155124 C 96.57639,90.894749 95.03467,87.163083 94.76279,87.637473 94.49091,88.111863 93.04611,92.2125 91.55211,96.75 l -2.71636,8.25 -6.94263,0 c -6.28486,0 -7.022,-0.21317 -7.7804,-2.25 z M 176,99.500001 C 176,94.666667 176.24242,94 178,94 c 1.90476,0 2,-0.666667 2,-14 0,-13.333333 -0.0952,-14 -2,-14 -1.75758,0 -2,-0.666667 -2,-5.5 l 0,-5.5 10,0 10,0 0,8.606989 c 0,7.835926 0.15677,8.535156 1.75,7.805155 0.9625,-0.441009 4.45,-0.971571 7.75,-1.179028 5.01588,-0.315327 6.55899,0.0037 9.40805,1.944845 5.27455,3.593752 7.36822,7.108332 7.875,13.219505 0.54895,6.619515 -2.2813,13.397005 -6.99664,16.754624 -3.58871,2.55539 -10.85425,3.47541 -16.07087,2.03504 C 197.53293,103.58448 196,103.54053 196,104.08061 196,104.58627 191.5,105 186,105 l -10,0 0,-5.499999 z m 29.4433,-6.722507 C 208.7628,88.03824 206.2821,80 201.5,80 c -3.0693,0 -5.5,3.488617 -5.5,7.893766 0,6.386103 6.15972,9.571687 9.4433,4.883728 z M 0,41.5 C 0,36.666667 0.24242,36 2,36 3.89333,36 4,35.333333 4,23.5 4,11.666667 3.89333,11 2,11 0.24242,11 0,10.333333 0,5.4999999 L 0,0 12.5,0 25,0 25,5.4999999 C 25,9.7222223 24.65151,11 23.5,11 22.45238,11 22,12.055556 22,14.5 l 0,3.5 5.5,0 5.5,0 0,-3.5 C 33,12.055556 32.54761,11 31.5,11 30.34848,11 30,9.7222223 30,5.4999999 L 30,0 42.5,0 55,0 55,5.4999999 C 55,10.333333 54.75757,11 53,11 c -1.89334,0 -2,0.666667 -2,12.5 0,11.833333 0.10666,12.5 2,12.5 1.75757,0 2,0.666667 2,5.5 L 55,47 42.5,47 30,47 30,41.5 C 30,37.277778 30.34848,36 31.5,36 32.58333,36 33,34.888889 33,32 l 0,-4 -5.5,0 -5.5,0 0,4 c 0,2.888889 0.41666,4 1.5,4 1.15151,0 1.5,1.277778 1.5,5.5 L 25,47 12.5,47 0,47 0,41.5 Z m 70.1206,3.852263 C 65.78203,43.134566 64,38.819636 64,30.532119 64,24.666667 63.79588,24 62,24 60.26666,24 60,23.333333 60,19 l 0,-5 10.46616,0 10.46617,0 0.28383,10.643507 c 0.31149,11.6804 1.11118,13.244104 6.12906,11.984695 C 89.8143,36.008503 90,35.578515 90,30.480948 90,25.666667 89.75673,25 88,25 86.24242,25 86,24.333333 86,19.5 l 0,-5.5 10.5,0 10.5,0 0,11.5 c 0,10.833333 0.11594,11.5 2,11.5 1.73333,0 2,0.666667 2,5 l 0,5 -10.5,0 C 90.62229,47 90,46.879945 90,44.97432 90,43.029211 89.8762,43.012659 86.88748,44.558186 82.10711,47.030211 74.14128,47.407471 70.1206,45.352263 Z M 126.02043,44.75 C 120.1121,41.730992 117.75966,38.24712 117.27035,31.791471 116.24329,18.24126 129.62367,9.0554783 142.53212,14.448973 L 146,15.897947 146,12.948973 C 146,10.470068 145.6015,10 143.5,10 141.16667,10 141,9.6666673 141,4.9999999 L 141,0 l 11,0 11,0 0,18.5 c 0,17.833333 0.0721,18.5 2,18.5 1.73333,0 2,0.666667 2,5 l 0,5 -10.41667,0 c -6.06753,0 -10.55608,-0.418238 -10.75057,-1.001728 -0.22299,-0.668971 -1.49417,-0.668971 -3.82673,0 -5.60813,1.608388 -11.25848,1.167167 -15.9856,-1.248272 z m 17.53844,-8.169389 c 2.74344,-2.006053 2.74344,-10.155169 0,-12.161222 C 138.84104,20.96963 134.5,23.883482 134.5,30.5 c 0,4.832285 1.95632,7.5 5.5,7.5 0.88976,0 2.49125,-0.638725 3.55887,-1.419389 z"
     style="fill:#020202" />
</svg>
